<svg xmlns="http://www.w3.org/2000/svg" width="41" height="41" viewBox="0 0 41 41">
    <g fill="#FFF" fill-rule="evenodd">
        <path d="M20.5 1.722c-10.354 0-18.778 8.424-18.778 18.778S10.146 39.278 20.5 39.278 39.278 30.854 39.278 20.5 30.854 1.722 20.5 1.722M20.5 41C9.197 41 0 31.803 0 20.5S9.197 0 20.5 0 41 9.197 41 20.5 31.803 41 20.5 41"/>
        <path d="M20.076 26.384a.91.91 0 0 1-.645-.268l-5.137-5.136a.912.912 0 1 1 1.292-1.291l4.49 4.49 4.49-4.49a.912.912 0 1 1 1.292 1.291l-5.137 5.136a.91.91 0 0 1-.645.268"/>
        <path d="M20.334 25.711a.913.913 0 0 1-.913-.912V14.94a.913.913 0 1 1 1.826 0V24.8a.913.913 0 0 1-.913.912"/>
    </g>
</svg>
